<svg width="145" height="142" viewBox="0 0 145 142" fill="none" xmlns="http://www.w3.org/2000/svg">
<path id="Vector" d="M36.25 0H21.75V21.6134H0V36.0223H21.75V57.6357H36.25V36.0223H58V21.6134H36.25V0ZM87 21.6134H145V36.0223H87V21.6134ZM87 93.658H145V108.067H87V93.658ZM87 122.476H145V136.885H87V122.476ZM45.6025 88.5429L29 105.113L12.3975 88.5429L2.1025 98.7732L18.7775 115.271L2.1025 131.77L12.3975 142L29 125.43L45.6025 142L55.8975 131.77L39.2225 115.271L55.8975 98.7732L45.6025 88.5429Z" fill="#FFAA2C"/>
</svg>
